<mxfile host="app.diagrams.net" modified="2023-11-16T08:29:40.626Z" agent="Mozilla/5.0 (Windows NT 10.0; Win64; x64) AppleWebKit/537.36 (KHTML, like Gecko) Chrome/119.0.0.0 Safari/537.36" etag="KbsiIQjSQiZuX-6WX8C0" version="22.1.2" type="device">
  <diagram name="Page-1" id="TKWmqeP5yIJCg59pzp_X">
    <mxGraphModel dx="1434" dy="746" grid="1" gridSize="10" guides="1" tooltips="1" connect="1" arrows="1" fold="1" page="1" pageScale="1" pageWidth="827" pageHeight="1169" math="0" shadow="0">
      <root>
        <mxCell id="0" />
        <mxCell id="1" parent="0" />
        <mxCell id="fyPf0eXlgS5W2TlTumUA-6" style="edgeStyle=orthogonalEdgeStyle;rounded=0;orthogonalLoop=1;jettySize=auto;html=1;" edge="1" parent="1" source="fyPf0eXlgS5W2TlTumUA-1" target="fyPf0eXlgS5W2TlTumUA-5">
          <mxGeometry relative="1" as="geometry" />
        </mxCell>
        <mxCell id="fyPf0eXlgS5W2TlTumUA-1" value="&lt;font style=&quot;font-size: 24px;&quot;&gt;RRC IDLE&lt;br&gt;EMM DETACH&lt;/font&gt;" style="ellipse;whiteSpace=wrap;html=1;" vertex="1" parent="1">
          <mxGeometry width="250" height="150" as="geometry" />
        </mxCell>
        <mxCell id="fyPf0eXlgS5W2TlTumUA-2" value="UE is off" style="text;html=1;strokeColor=none;fillColor=none;align=center;verticalAlign=middle;whiteSpace=wrap;rounded=0;" vertex="1" parent="1">
          <mxGeometry x="95" y="120" width="60" height="30" as="geometry" />
        </mxCell>
        <mxCell id="fyPf0eXlgS5W2TlTumUA-9" style="edgeStyle=orthogonalEdgeStyle;rounded=0;orthogonalLoop=1;jettySize=auto;html=1;exitX=0;exitY=1;exitDx=0;exitDy=0;entryX=0;entryY=0;entryDx=0;entryDy=0;" edge="1" parent="1" source="fyPf0eXlgS5W2TlTumUA-3" target="fyPf0eXlgS5W2TlTumUA-4">
          <mxGeometry relative="1" as="geometry" />
        </mxCell>
        <mxCell id="fyPf0eXlgS5W2TlTumUA-10" style="edgeStyle=orthogonalEdgeStyle;rounded=0;orthogonalLoop=1;jettySize=auto;html=1;exitX=0;exitY=0.5;exitDx=0;exitDy=0;entryX=1;entryY=0.5;entryDx=0;entryDy=0;" edge="1" parent="1" source="fyPf0eXlgS5W2TlTumUA-3" target="fyPf0eXlgS5W2TlTumUA-1">
          <mxGeometry relative="1" as="geometry" />
        </mxCell>
        <mxCell id="fyPf0eXlgS5W2TlTumUA-3" value="&lt;font style=&quot;font-size: 24px;&quot;&gt;RRC IDLE&lt;br&gt;EMM ATTACH&lt;/font&gt;" style="ellipse;whiteSpace=wrap;html=1;" vertex="1" parent="1">
          <mxGeometry x="400" width="250" height="150" as="geometry" />
        </mxCell>
        <mxCell id="fyPf0eXlgS5W2TlTumUA-8" style="edgeStyle=orthogonalEdgeStyle;rounded=0;orthogonalLoop=1;jettySize=auto;html=1;exitX=1;exitY=0;exitDx=0;exitDy=0;entryX=1;entryY=1;entryDx=0;entryDy=0;" edge="1" parent="1" source="fyPf0eXlgS5W2TlTumUA-4" target="fyPf0eXlgS5W2TlTumUA-3">
          <mxGeometry relative="1" as="geometry" />
        </mxCell>
        <mxCell id="fyPf0eXlgS5W2TlTumUA-4" value="&lt;font style=&quot;font-size: 24px;&quot;&gt;RRC CONNECTED&lt;br&gt;EMM ATTACH&lt;/font&gt;" style="ellipse;whiteSpace=wrap;html=1;" vertex="1" parent="1">
          <mxGeometry x="400" y="280" width="250" height="150" as="geometry" />
        </mxCell>
        <mxCell id="fyPf0eXlgS5W2TlTumUA-7" style="edgeStyle=orthogonalEdgeStyle;rounded=0;orthogonalLoop=1;jettySize=auto;html=1;exitX=1;exitY=0.5;exitDx=0;exitDy=0;entryX=0;entryY=0.5;entryDx=0;entryDy=0;" edge="1" parent="1" source="fyPf0eXlgS5W2TlTumUA-5" target="fyPf0eXlgS5W2TlTumUA-4">
          <mxGeometry relative="1" as="geometry" />
        </mxCell>
        <mxCell id="fyPf0eXlgS5W2TlTumUA-5" value="&lt;font style=&quot;font-size: 24px;&quot;&gt;RRC CONNECTED&lt;br&gt;EMM DETACH&lt;/font&gt;" style="ellipse;whiteSpace=wrap;html=1;" vertex="1" parent="1">
          <mxGeometry y="280" width="250" height="150" as="geometry" />
        </mxCell>
        <mxCell id="fyPf0eXlgS5W2TlTumUA-13" value="" style="endArrow=classic;html=1;rounded=0;entryX=1;entryY=1;entryDx=0;entryDy=0;exitX=0.056;exitY=0.26;exitDx=0;exitDy=0;exitPerimeter=0;" edge="1" parent="1" source="fyPf0eXlgS5W2TlTumUA-4" target="fyPf0eXlgS5W2TlTumUA-1">
          <mxGeometry width="50" height="50" relative="1" as="geometry">
            <mxPoint x="390" y="370" as="sourcePoint" />
            <mxPoint x="440" y="320" as="targetPoint" />
          </mxGeometry>
        </mxCell>
        <mxCell id="fyPf0eXlgS5W2TlTumUA-14" value="End of the RRC timer" style="text;html=1;strokeColor=none;fillColor=none;align=center;verticalAlign=middle;whiteSpace=wrap;rounded=0;" vertex="1" parent="1">
          <mxGeometry x="620" y="200" width="60" height="30" as="geometry" />
        </mxCell>
        <mxCell id="fyPf0eXlgS5W2TlTumUA-15" value="Random access procedure" style="text;html=1;strokeColor=none;fillColor=none;align=center;verticalAlign=middle;whiteSpace=wrap;rounded=0;" vertex="1" parent="1">
          <mxGeometry x="440" y="200" width="60" height="30" as="geometry" />
        </mxCell>
        <mxCell id="fyPf0eXlgS5W2TlTumUA-16" value="Rare transitory state" style="text;html=1;strokeColor=none;fillColor=none;align=center;verticalAlign=middle;whiteSpace=wrap;rounded=0;" vertex="1" parent="1">
          <mxGeometry x="65" y="400" width="120" height="30" as="geometry" />
        </mxCell>
      </root>
    </mxGraphModel>
  </diagram>
</mxfile>
